# xmcd
#
# Track frame offsets: 
#        150
#        18587
#        36590
#        53374
#        72805
#        95248
#        119064
#        135728
#        155978
#        170446
#        189957
#        218822
#        233067
#        250183
#
# Disc length: 3524 seconds
#
# Revision: 0
# Processed by: cddbd v1.5.2PL0 Copyright (c) Steve Scherf et al.
# Submitted via: ExactAudioCopy v1.3
#
DISCID=cb0dc20e
DTITLE=Snooky Pryor - All My Money Gone
DYEAR=2018
DGENRE=Blues
TTITLE0=Ain't That Just Like A Woman
TTITLE1=All My Money Gone
TTITLE2=Homesick And Snooky's Boogie
TTITLE3=I'm Gonna Call Up My Baby
TTITLE4=Boogie Twist
TTITLE5=Blue Bird Blues
TTITLE6=Break It Up, Baby
TTITLE7=After You There Won't Be Nobody Else
TTITLE8=Look What You Doin' To Me
TTITLE9=Big Road Blues
TTITLE10=Snooky's Off The Wall Blues
TTITLE11=Keep Your Arms Around Me
TTITLE12=Trouble In Mind
TTITLE13=Work With Me, Annie
EXTD=
EXTT0=
EXTT1=
EXTT2=
EXTT3=
EXTT4=
EXTT5=
EXTT6=
EXTT7=
EXTT8=
EXTT9=
EXTT10=
EXTT11=
EXTT12=
EXTT13=
PLAYORDER=
